<?xml version="1.0" encoding="UTF-8"?>
<!DOCTYPE svg PUBLIC "-//W3C//DTD SVG 1.1//EN" "http://www.w3.org/Graphics/SVG/1.1/DTD/svg11.dtd">
<!-- Creator: CorelDRAW X7 -->
<svg xmlns="http://www.w3.org/2000/svg" xml:space="preserve" width="1100px" height="1572px" version="1.1" style="shape-rendering:geometricPrecision; text-rendering:geometricPrecision; image-rendering:optimizeQuality; fill-rule:evenodd; clip-rule:evenodd"
viewBox="0 0 1100 1571"
 xmlns:xlink="http://www.w3.org/1999/xlink">
 <defs>
  <style type="text/css">

    .fil1 {fill:#FEFEFE}
    .fil0 {fill:#FEFEFE;fill-rule:nonzero}

  </style>
 </defs>
 <g id="Layer_x0020_1">
  <metadata id="CorelCorpID_0Corel-Layer"/>
  <g id="_2301881982320">
   <g>
    <path class="fil0" d="M114 1461l30 -30 0 17 26 0 0 14 -26 0 0 40c0,10 4,14 12,14 6,0 12,-2 18,-5l0 15c-6,3 -13,5 -20,5 -8,0 -14,-2 -19,-7 -1,-1 -3,-2 -4,-4 -1,-2 -1,-4 -2,-6 -1,-3 -1,-8 -1,-15l0 -37 -14 0 0 -1zm128 29l-58 0c1,8 3,14 8,19 5,4 11,7 19,7 10,0 20,-4 29,-10l0 16c-5,3 -10,5 -15,7 -5,1 -10,2 -17,2 -9,0 -16,-2 -22,-6 -5,-4 -10,-9 -13,-15 -3,-6 -5,-14 -5,-22 0,-12 3,-23 11,-30 7,-8 16,-12 27,-12 11,0 19,4 26,11 6,8 10,18 10,31l0 2zm-58 -10l42 0c-1,-6 -3,-11 -6,-15 -4,-3 -8,-5 -14,-5 -6,0 -11,2 -14,5 -4,4 -6,9 -8,15zm114 -32l20 0 -35 40 42 41 -22 0 -41 -41 36 -40zm-53 -43l16 0 0 124 -16 0 0 -124zm90 43l0 10c7,-8 15,-12 24,-12 5,0 10,1 15,4 4,3 7,6 10,11 2,4 3,12 3,22l0 46 -16 0 0 -46c0,-9 -1,-15 -4,-18 -3,-4 -7,-6 -13,-6 -7,0 -14,4 -19,12l0 58 -17 0 0 -81 17 0zm100 0c12,0 23,4 31,12 8,8 12,18 12,30 0,12 -4,21 -12,29 -9,8 -19,12 -32,12 -12,0 -22,-4 -31,-12 -8,-8 -12,-18 -12,-30 0,-12 4,-21 12,-29 9,-8 19,-12 32,-12zm-1 14c-8,0 -14,3 -19,8 -5,5 -8,11 -8,19 0,8 3,14 8,19 5,5 12,8 20,8 8,0 14,-3 19,-8 5,-5 8,-11 8,-19 0,-8 -3,-14 -8,-19 -5,-5 -12,-8 -20,-8zm49 -57l16 0 0 124 -16 0 0 -124zm64 43c13,0 23,4 31,12 9,8 13,18 13,30 0,12 -4,21 -13,29 -8,8 -19,12 -31,12 -13,0 -23,-4 -31,-12 -8,-8 -12,-18 -12,-30 0,-12 4,-21 12,-29 8,-8 19,-12 31,-12zm0 14c-8,0 -15,3 -20,8 -5,5 -7,11 -7,19 0,8 3,14 8,19 5,5 11,8 19,8 8,0 15,-3 20,-8 5,-5 7,-11 7,-19 0,-8 -2,-14 -8,-19 -5,-5 -11,-8 -19,-8zm55 -49c3,0 5,1 7,3 2,2 3,4 3,7 0,3 -1,5 -3,7 -1,2 -4,2 -6,2 -3,0 -5,0 -7,-2 -2,-2 -3,-5 -3,-7 0,-3 1,-5 3,-7 2,-2 4,-3 6,-3zm-7 35l16 0 0 93c0,14 -6,24 -16,30l-12 -11c3,-2 6,-4 8,-7 3,-4 4,-7 4,-12l0 -93zm34 -35c3,0 5,1 7,3 2,2 3,4 3,7 0,2 -1,5 -3,7 -2,2 -4,2 -7,2 -2,0 -4,0 -6,-2 -2,-2 -3,-5 -3,-7 0,-3 1,-5 3,-7 2,-2 4,-3 6,-3zm-8 35l17 0 0 81 -17 0 0 -81z"/>
    <path class="fil0" d="M0 1060l314 0 0 43 -153 0 0 290 -47 0 0 -290 -114 0 0 -43zm232 114l0 50 3 -4c21,-33 42,-46 63,-46 16,0 33,4 51,21l-23 38c-15,-15 -29,-22 -42,-22 -14,0 -26,7 -36,20 -10,13 -16,29 -16,47l0 115 -43 0 0 -219 43 0zm222 219l0 -28c-9,10 -20,18 -32,23 -12,6 -23,8 -35,8 -14,0 -26,-3 -38,-10 -12,-7 -21,-16 -26,-28 -6,-12 -9,-31 -9,-59l0 -125 43 0 0 125c0,23 3,39 10,48 6,9 18,13 34,13 21,0 38,-10 53,-30l0 -156 43 0 0 219 -43 0zm44 -219l0 28c19,-21 41,-28 66,-28 13,0 26,-1 38,6 11,7 20,17 26,29 6,13 10,32 10,59l0 125 -44 0 0 -125c0,-22 -3,-38 -10,-48 -7,-9 -18,-14 -34,-14 -21,0 -38,10 -52,31l0 156 -44 0 0 -219 44 0zm247 222l-1 4c9,2 15,6 20,12 5,6 7,13 7,20 0,12 -4,23 -14,31 -10,8 -25,13 -46,13 -6,0 -11,-1 -16,-1l0 -27c8,0 13,1 15,1 9,0 17,-2 22,-6 3,-2 4,-4 4,-8 0,-4 -2,-7 -5,-9 -3,-3 -9,-4 -18,-4 -1,0 -3,0 -5,1l10 -29c-20,-5 -39,-16 -56,-33 -17,-17 -26,-42 -26,-76 0,-35 10,-63 30,-84 20,-21 46,-27 78,-27 29,0 35,-2 63,11l0 46c-22,-14 -42,-21 -60,-21 -20,0 -36,7 -48,21 -13,13 -19,31 -19,52 0,22 7,40 20,53 14,13 32,20 55,20 16,0 36,-5 57,-14l0 42c-22,8 -43,12 -64,12l-3 0z"/>
    <path class="fil0" d="M810 1250c0,-24 9,-42 26,-56 17,-13 40,-20 69,-20l90 0 0 34 -44 0c9,9 15,16 18,24 3,7 5,15 5,24 0,11 -3,23 -10,34 -6,11 -15,19 -25,25 -10,6 -27,10 -50,14 -16,2 -24,8 -24,17 0,5 3,9 9,12 6,4 17,7 33,10 27,6 44,11 52,14 7,3 14,8 20,14 11,11 16,24 16,40 0,21 -9,37 -28,49 -18,13 -43,19 -74,19 -31,0 -56,-6 -74,-19 -19,-12 -28,-29 -28,-50 0,-29 18,-48 55,-57 -15,-9 -22,-18 -22,-28 0,-7 3,-13 9,-19 6,-5 15,-10 25,-12 -32,-15 -48,-38 -48,-69zm81 -38c-11,0 -21,4 -29,12 -9,7 -13,17 -13,28 0,11 4,21 12,28 8,7 19,11 31,11 12,0 1,-4 9,-11 8,-8 12,-17 12,-28 0,-12 -4,-21 -12,-29 -9,-8 3,-11 -10,-11zm-10 191c-14,0 -26,3 -36,9 -9,6 -13,14 -13,24 0,22 20,34 60,34 20,0 34,-3 45,-9 10,-6 16,-13 16,-24 0,-10 -7,-18 -20,-25 -14,-6 -31,-9 -52,-9zm130 -321c8,0 14,3 19,8 5,4 7,10 7,18 0,7 -2,13 -7,18 -5,5 -11,7 -19,7 -6,0 -12,-2 -17,-7 -5,-6 -8,-12 -8,-18 0,-7 3,-13 8,-18 5,-5 11,-8 17,-8zm-21 92l43 0 0 219 -43 0 0 -219zm67 -113l43 0 0 332 -43 0 0 -332z"/>
   </g>
   <g>
    <path class="fil1" d="M595 765c-79,-165 -156,-328 -234,-494 -173,-246 -478,33 -314,242 152,120 278,225 430,345 78,-15 109,-52 118,-93z"/>
    <path class="fil1" d="M724 725c-15,-137 -61,-409 -66,-511 -24,-346 -411,-236 -266,67 76,151 133,318 217,479 47,13 105,-8 115,-35z"/>
    <path class="fil1" d="M832 739c32,-134 83,-324 112,-422 25,-231 -230,-332 -258,-190 -5,53 2,134 13,228 12,113 31,241 40,365 26,35 73,38 93,19z"/>
    <path class="fil1" d="M920 815l157 -227c70,-121 -39,-406 -100,-241 -5,9 -109,330 -130,394 1,65 54,85 73,74z"/>
    <path class="fil1" d="M606 771c52,7 106,-2 126,-42 30,40 84,40 105,17 -1,50 24,79 71,86 -22,34 -61,74 -81,10 -22,108 -43,180 -64,289 -23,11 -41,13 -64,0 -12,-101 -25,-166 -37,-267 -40,74 -100,69 -173,3 20,-9 97,-12 117,-96z"/>
   </g>
  </g>
 </g>
</svg>
